<mxfile host="app.diagrams.net" agent="Mozilla/5.0 (Windows NT 10.0; Win64; x64) AppleWebKit/537.36 (KHTML, like Gecko) Chrome/133.0.0.0 Safari/537.36 Edg/133.0.0.0" version="26.1.0">
  <diagram name="Page-1" id="rtvT-JdhC1wCYxpIFXKu">
    <mxGraphModel dx="1589" dy="504" grid="1" gridSize="10" guides="1" tooltips="1" connect="1" arrows="1" fold="1" page="1" pageScale="1" pageWidth="850" pageHeight="1100" math="0" shadow="0">
      <root>
        <mxCell id="0" />
        <mxCell id="1" parent="0" />
        <mxCell id="2" value="Start" style="whiteSpace=wrap;strokeWidth=2;" parent="1" vertex="1">
          <mxGeometry x="8" y="132" width="95" height="54" as="geometry" />
        </mxCell>
        <mxCell id="3" value="Enter principal amount, rate of interest, and time period" style="rhombus;strokeWidth=2;whiteSpace=wrap;" parent="1" vertex="1">
          <mxGeometry x="153" y="8" width="302" height="302" as="geometry" />
        </mxCell>
        <mxCell id="4" value="Input is valid?" style="rhombus;strokeWidth=2;whiteSpace=wrap;" parent="1" vertex="1">
          <mxGeometry x="610" y="83" width="152" height="152" as="geometry" />
        </mxCell>
        <mxCell id="5" value="Display error message and terminate" style="whiteSpace=wrap;strokeWidth=2;" parent="1" vertex="1">
          <mxGeometry x="840" y="17" width="260" height="78" as="geometry" />
        </mxCell>
        <mxCell id="6" value="Calculate simple interest" style="rhombus;strokeWidth=2;whiteSpace=wrap;" parent="1" vertex="1">
          <mxGeometry x="853" y="145" width="234" height="234" as="geometry" />
        </mxCell>
        <mxCell id="7" value="Display the calculated simple interest" style="whiteSpace=wrap;strokeWidth=2;" parent="1" vertex="1">
          <mxGeometry x="1248" y="223" width="260" height="78" as="geometry" />
        </mxCell>
        <mxCell id="8" value="" style="curved=1;startArrow=none;endArrow=block;exitX=1;exitY=0.5;entryX=0;entryY=0.5;" parent="1" source="2" target="3" edge="1">
          <mxGeometry relative="1" as="geometry">
            <Array as="points" />
          </mxGeometry>
        </mxCell>
        <mxCell id="9" value="Validate input" style="curved=1;startArrow=none;endArrow=block;exitX=1;exitY=0.5;entryX=0;entryY=0.5;" parent="1" source="3" target="4" edge="1">
          <mxGeometry relative="1" as="geometry">
            <Array as="points" />
          </mxGeometry>
        </mxCell>
        <mxCell id="10" value="No" style="curved=1;startArrow=none;endArrow=block;exitX=1;exitY=0.05;entryX=0;entryY=0.5;" parent="1" source="4" target="5" edge="1">
          <mxGeometry relative="1" as="geometry">
            <Array as="points">
              <mxPoint x="801" y="56" />
            </Array>
          </mxGeometry>
        </mxCell>
        <mxCell id="11" value="Yes" style="curved=1;startArrow=none;endArrow=block;exitX=1;exitY=0.95;entryX=0;entryY=0.5;" parent="1" source="4" target="6" edge="1">
          <mxGeometry relative="1" as="geometry">
            <Array as="points">
              <mxPoint x="801" y="262" />
            </Array>
          </mxGeometry>
        </mxCell>
        <mxCell id="12" value="Return result" style="curved=1;startArrow=none;endArrow=block;exitX=1;exitY=0.5;entryX=0;entryY=0.5;" parent="1" source="6" target="7" edge="1">
          <mxGeometry relative="1" as="geometry">
            <Array as="points" />
          </mxGeometry>
        </mxCell>
        <mxCell id="ypldA1WWTXiXuqSQeMtE-12" value="Start" style="whiteSpace=wrap;strokeWidth=2;" vertex="1" parent="1">
          <mxGeometry x="-70" y="514" width="95" height="54" as="geometry" />
        </mxCell>
        <mxCell id="ypldA1WWTXiXuqSQeMtE-13" value="Enter principal amount, rate of interest, and time period" style="rhombus;strokeWidth=2;whiteSpace=wrap;" vertex="1" parent="1">
          <mxGeometry x="75" y="390" width="302" height="302" as="geometry" />
        </mxCell>
        <mxCell id="ypldA1WWTXiXuqSQeMtE-14" value="Input is valid?" style="rhombus;strokeWidth=2;whiteSpace=wrap;" vertex="1" parent="1">
          <mxGeometry x="532" y="465" width="152" height="152" as="geometry" />
        </mxCell>
        <mxCell id="ypldA1WWTXiXuqSQeMtE-15" value="Display error message and terminate" style="whiteSpace=wrap;strokeWidth=2;" vertex="1" parent="1">
          <mxGeometry x="762" y="399" width="260" height="78" as="geometry" />
        </mxCell>
        <mxCell id="ypldA1WWTXiXuqSQeMtE-16" value="Calculate amount thenÂ &#xa;compound interest" style="rhombus;strokeWidth=2;whiteSpace=wrap;" vertex="1" parent="1">
          <mxGeometry x="775" y="527" width="234" height="234" as="geometry" />
        </mxCell>
        <mxCell id="ypldA1WWTXiXuqSQeMtE-17" value="Display the calculated Compound interest" style="whiteSpace=wrap;strokeWidth=2;" vertex="1" parent="1">
          <mxGeometry x="1170" y="605" width="260" height="78" as="geometry" />
        </mxCell>
        <mxCell id="ypldA1WWTXiXuqSQeMtE-18" value="" style="curved=1;startArrow=none;endArrow=block;exitX=1;exitY=0.5;entryX=0;entryY=0.5;" edge="1" parent="1" source="ypldA1WWTXiXuqSQeMtE-12" target="ypldA1WWTXiXuqSQeMtE-13">
          <mxGeometry relative="1" as="geometry">
            <Array as="points" />
          </mxGeometry>
        </mxCell>
        <mxCell id="ypldA1WWTXiXuqSQeMtE-19" value="Validate input" style="curved=1;startArrow=none;endArrow=block;exitX=1;exitY=0.5;entryX=0;entryY=0.5;" edge="1" parent="1" source="ypldA1WWTXiXuqSQeMtE-13" target="ypldA1WWTXiXuqSQeMtE-14">
          <mxGeometry relative="1" as="geometry">
            <Array as="points" />
          </mxGeometry>
        </mxCell>
        <mxCell id="ypldA1WWTXiXuqSQeMtE-20" value="No" style="curved=1;startArrow=none;endArrow=block;exitX=1;exitY=0.05;entryX=0;entryY=0.5;" edge="1" parent="1" source="ypldA1WWTXiXuqSQeMtE-14" target="ypldA1WWTXiXuqSQeMtE-15">
          <mxGeometry relative="1" as="geometry">
            <Array as="points">
              <mxPoint x="723" y="438" />
            </Array>
          </mxGeometry>
        </mxCell>
        <mxCell id="ypldA1WWTXiXuqSQeMtE-21" value="Yes" style="curved=1;startArrow=none;endArrow=block;exitX=1;exitY=0.95;entryX=0;entryY=0.5;" edge="1" parent="1" source="ypldA1WWTXiXuqSQeMtE-14" target="ypldA1WWTXiXuqSQeMtE-16">
          <mxGeometry relative="1" as="geometry">
            <Array as="points">
              <mxPoint x="723" y="644" />
            </Array>
          </mxGeometry>
        </mxCell>
        <mxCell id="ypldA1WWTXiXuqSQeMtE-22" value="Return result" style="curved=1;startArrow=none;endArrow=block;exitX=1;exitY=0.5;entryX=0;entryY=0.5;" edge="1" parent="1" source="ypldA1WWTXiXuqSQeMtE-16" target="ypldA1WWTXiXuqSQeMtE-17">
          <mxGeometry relative="1" as="geometry">
            <Array as="points" />
          </mxGeometry>
        </mxCell>
      </root>
    </mxGraphModel>
  </diagram>
</mxfile>
